<svg width="58" height="58" viewBox="0 0 58 58" fill="none" xmlns="http://www.w3.org/2000/svg">
<g clip-path="url(#clip0_69_320)">
<path d="M54.0988 41.4763H45.0822V32.4597H41.4756V41.4763H32.459V45.0829H41.4756V54.0995H45.0822V45.0829H54.0988V41.4763Z" fill="black"/>
<path d="M43.5077 21.3513L45.6374 21.7354C47.363 22.0166 48.9905 22.7259 50.3711 23.7984C51.6571 24.8198 52.6649 26.1488 53.3016 27.6626C53.9382 29.1764 54.1832 30.8262 54.0138 32.4597H57.6746C57.8983 29.1405 56.8909 25.8553 54.8449 23.2321C52.7989 20.6089 49.8579 18.8318 46.5842 18.2405C45.9004 14.6982 44.1708 11.442 41.6187 8.89211C39.0665 6.34219 35.8088 4.61551 32.2659 3.93485C29.9387 3.48539 27.5458 3.49896 25.2239 3.97477C22.902 4.45059 20.6966 5.37932 18.7338 6.70788C16.771 8.03645 15.0893 9.73881 13.7848 11.7176C12.4802 13.6965 11.5785 15.913 11.131 18.2405C7.73134 18.8558 4.69564 20.7478 2.64579 23.5289C0.595946 26.31 -0.312871 29.7696 0.105522 33.1991C0.584566 36.5318 2.26072 39.5762 4.82077 41.7632C7.38081 43.9502 10.6496 45.1303 14.0163 45.0829H25.2455V41.4763H13.881C11.5187 41.5142 9.21711 40.727 7.37278 39.2503C5.52844 37.7737 4.25685 35.7 3.77707 33.3866C3.53657 32.0998 3.55288 30.7782 3.82507 29.4978C4.09726 28.2174 4.61996 27.0034 5.3631 25.9257C6.10623 24.8481 7.05512 23.928 8.15518 23.2184C9.25525 22.5089 10.4848 22.0239 11.773 21.7913L14.2056 21.3495L14.5916 19.3478C15.1343 16.3407 16.5942 13.5753 18.771 11.4308C20.9477 9.28636 23.7347 7.86794 26.7495 7.37016C28.5597 7.10291 30.4042 7.18247 32.1847 7.6046C34.9308 8.28431 37.4219 9.74305 39.3584 11.8053C41.295 13.8675 42.5943 16.4454 43.1002 19.2288L43.5077 21.3513Z" fill="black"/>
</g>
<defs>
<clipPath id="clip0_69_320">
<rect width="57.7061" height="57.7061" fill="white"/>
</clipPath>
</defs>
</svg>
