<svg width="49" height="44" viewBox="0 0 49 44" fill="none" xmlns="http://www.w3.org/2000/svg">
<path d="M40.2019 28.4702C41.0435 26.4264 41.5003 24.2384 41.5003 21.834C41.5003 20.1028 41.2358 18.4437 40.779 16.9049C39.2161 17.2656 37.5811 17.4579 35.874 17.4579C32.3779 17.4617 28.9321 16.6248 25.8272 15.018C22.7222 13.4111 20.0491 11.0813 18.0332 8.22494C15.8787 13.4443 11.8098 17.6422 6.66024 19.9585C6.56407 20.5596 6.56407 21.2088 6.56407 21.834C6.56407 24.1295 7.01621 26.4025 7.89466 28.5233C8.77312 30.6441 10.0607 32.5711 11.6839 34.1943C14.962 37.4724 19.4082 39.3141 24.0442 39.3141C26.5688 39.3141 28.9973 38.7611 31.1853 37.7753C32.5559 40.3961 33.181 41.6945 33.1329 41.6945C29.1897 43.0169 26.1361 43.6661 24.0442 43.6661C18.2255 43.6661 12.6713 41.3819 8.58378 37.2703C6.09532 34.7936 4.24686 31.7486 3.19788 28.398H0V17.4579H2.62082C3.41486 13.5928 5.24042 10.0148 7.90379 7.1035C10.5672 4.19218 13.969 2.05617 17.7483 0.922133C21.5276 -0.211909 25.5434 -0.301685 29.3697 0.662331C33.1959 1.62635 36.6898 3.60819 39.4806 6.39758C42.5096 9.41652 44.5763 13.2653 45.4195 17.4579H48.0884V28.398H47.9441L39.3844 36.2605L26.641 34.8178V30.8024H38.2543L40.2019 28.4702ZM17.4801 21.2809C18.2015 21.2809 18.8987 21.5695 19.4037 22.0984C19.9111 22.61 20.1959 23.3014 20.1959 24.022C20.1959 24.7426 19.9111 25.4339 19.4037 25.9455C18.8987 26.4504 18.2015 26.739 17.4801 26.739C15.9654 26.739 14.7391 25.5368 14.7391 24.022C14.7391 22.5072 15.9654 21.2809 17.4801 21.2809ZM30.5842 21.2809C32.099 21.2809 33.3012 22.5072 33.3012 24.022C33.3012 25.5368 32.099 26.739 30.5842 26.739C29.0694 26.739 27.8432 25.5368 27.8432 24.022C27.8432 23.295 28.132 22.5978 28.646 22.0838C29.1601 21.5697 29.8573 21.2809 30.5842 21.2809Z" fill="black"/>
</svg>
