<svg width="52" height="40" viewBox="0 0 52 40" fill="none" xmlns="http://www.w3.org/2000/svg">
<path d="M1.80334 1.80331H18.05C18.9976 1.8032 19.9359 1.98979 20.8114 2.35243C21.6868 2.71507 22.4823 3.24665 23.1522 3.9168L30.6564 11.421M9.01661 23.4431H1.80334M17.4321 9.01658L22.2409 13.8254C22.5567 14.1412 22.8071 14.516 22.978 14.9286C23.1489 15.3411 23.2369 15.7833 23.2369 16.2298C23.2369 16.6764 23.1489 17.1185 22.978 17.5311C22.8071 17.9437 22.5567 18.3185 22.2409 18.6343C21.9252 18.95 21.5503 19.2005 21.1378 19.3714C20.7252 19.5423 20.283 19.6302 19.8365 19.6302C19.39 19.6302 18.9478 19.5423 18.5352 19.3714C18.1227 19.2005 17.7478 18.95 17.4321 18.6343L13.8254 15.0276C11.7576 17.0954 8.48042 17.3287 6.13852 15.5734L5.40998 15.0276" stroke="black" stroke-width="3.60663" stroke-linecap="round" stroke-linejoin="round"/>
<path d="M9.0166 17.432V28.2519C9.0166 32.7867 9.0166 35.0516 10.4256 36.4606C11.8346 37.8696 14.0995 37.8696 18.6343 37.8696H40.2741C44.8088 37.8696 47.0738 37.8696 48.4828 36.4606C49.8918 35.0516 49.8918 32.7867 49.8918 28.2519V21.0387C49.8918 16.5039 49.8918 14.239 48.4828 12.83C47.0738 11.421 44.8088 11.421 40.2741 11.421H19.8365" stroke="black" stroke-width="3.60663" stroke-linecap="round" stroke-linejoin="round"/>
<path d="M33.6619 24.6453C33.6619 25.7613 33.2186 26.8315 32.4295 27.6206C31.6404 28.4097 30.5702 28.853 29.4542 28.853C28.3382 28.853 27.268 28.4097 26.4789 27.6206C25.6898 26.8315 25.2465 25.7613 25.2465 24.6453C25.2465 23.5293 25.6898 22.4591 26.4789 21.67C27.268 20.8809 28.3382 20.4376 29.4542 20.4376C30.5702 20.4376 31.6404 20.8809 32.4295 21.67C33.2186 22.4591 33.6619 23.5293 33.6619 24.6453Z" stroke="black" stroke-width="3.60663" stroke-linecap="round" stroke-linejoin="round"/>
</svg>
