<svg width="49" height="49" viewBox="0 0 49 49" fill="none" xmlns="http://www.w3.org/2000/svg">
<path d="M23.924 38.4707C24.7655 38.4707 25.4772 38.1798 26.0591 37.5979C26.641 37.0161 26.9311 36.3052 26.9295 35.4652C26.9279 34.6253 26.6378 33.9136 26.0591 33.3301C25.4804 32.7466 24.7687 32.4565 23.924 32.4597C23.0792 32.4629 22.3683 32.7538 21.7913 33.3325C21.2142 33.9112 20.9233 34.6221 20.9185 35.4652C20.9137 36.3084 21.2046 37.0201 21.7913 37.6003C22.3779 38.1806 23.0889 38.4707 23.924 38.4707ZM21.76 29.2137H26.2082C26.2082 27.8913 26.3589 26.8494 26.6602 26.088C26.9616 25.3266 27.8127 24.2847 29.2137 22.9622C30.2556 21.9203 31.0771 20.9281 31.6782 19.9856C32.2794 19.043 32.5799 17.9113 32.5799 16.5905C32.5799 14.3464 31.7584 12.6232 30.1154 11.421C28.4723 10.2188 26.5288 9.61769 24.2847 9.61769C22.0005 9.61769 20.1474 10.2188 18.7256 11.421C17.3038 12.6232 16.3116 14.0659 15.749 15.749L19.7163 17.3118C19.9166 16.5905 20.3678 15.8091 21.0699 14.9675C21.772 14.126 22.8436 13.7052 24.2847 13.7052C25.567 13.7052 26.5288 14.0563 27.17 14.7583C27.8111 15.4604 28.1317 16.2315 28.1317 17.0714C28.1317 17.8729 27.8913 18.6247 27.4104 19.3267C26.9295 20.0288 26.3284 20.6796 25.6071 21.2791C23.8438 22.842 22.7619 24.0242 22.3611 24.8257C21.9604 25.6271 21.76 27.0898 21.76 29.2137ZM24.0442 48.0884C20.7181 48.0884 17.5923 47.4577 14.667 46.1961C11.7416 44.9346 9.19691 43.2211 7.03293 41.0555C4.86896 38.8899 3.15621 36.3452 1.89469 33.4215C0.633167 30.4977 0.00160599 27.3719 3.04357e-06 24.0442C-0.0015999 20.7165 0.629961 17.5908 1.89469 14.667C3.15941 11.7432 4.87216 9.19852 7.03293 7.03294C9.19371 4.86736 11.7384 3.15461 14.667 1.8947C17.5956 0.63478 20.7213 0.00321804 24.0442 1.21435e-05C27.3671 -0.00319375 30.4929 0.628368 33.4214 1.8947C36.35 3.16102 38.8947 4.87377 41.0555 7.03294C43.2163 9.19211 44.9298 11.7368 46.1961 14.667C47.4625 17.5972 48.0932 20.7229 48.0884 24.0442C48.0836 27.3655 47.452 30.4913 46.1937 33.4215C44.9354 36.3516 43.2227 38.8963 41.0555 41.0555C38.8883 43.2147 36.3436 44.9282 33.4214 46.1961C30.4993 47.4641 27.3735 48.0948 24.0442 48.0884ZM24.0442 43.2796C29.4141 43.2796 33.9624 41.4162 37.6893 37.6893C41.4161 33.9625 43.2796 29.4141 43.2796 24.0442C43.2796 18.6743 41.4161 14.126 37.6893 10.3991C33.9624 6.67228 29.4141 4.80885 24.0442 4.80885C18.6743 4.80885 14.126 6.67228 10.3991 10.3991C6.67227 14.126 4.80884 18.6743 4.80884 24.0442C4.80884 29.4141 6.67227 33.9625 10.3991 37.6893C14.126 41.4162 18.6743 43.2796 24.0442 43.2796Z" fill="black"/>
</svg>
