<svg width="49" height="39" viewBox="0 0 49 39" fill="none" xmlns="http://www.w3.org/2000/svg">
<path d="M20.3174 27.6508C21.2791 28.6126 22.5214 29.0839 24.0442 29.0646C25.567 29.0454 26.6891 28.494 27.4104 27.4104L37.5691 12.2024C37.9297 11.6414 37.88 11.1301 37.42 10.6684C36.96 10.2068 36.4486 10.1571 35.886 10.5193L20.678 20.678C19.596 21.3993 19.0254 22.5014 18.9661 23.9841C18.9068 25.4668 19.3572 26.6891 20.3174 27.6508ZM24.0442 0C25.4869 0 26.9095 0.120221 28.3121 0.360663C29.7146 0.601105 31.0771 0.981805 32.3996 1.50276C33.0407 1.7432 33.722 2.19443 34.4433 2.85645C35.1647 3.51847 35.365 4.14923 35.0444 4.74873C34.7238 5.34823 34.0025 5.74897 32.8805 5.95094C31.7584 6.15291 30.8567 6.13287 30.1755 5.89083C29.1736 5.53017 28.1622 5.26007 27.1411 5.08054C26.12 4.90101 25.0877 4.81044 24.0442 4.80884C18.7144 4.80884 14.1757 6.68269 10.428 10.4304C6.68028 14.1781 4.80724 18.716 4.80884 24.0442C4.80884 25.7273 5.03967 27.3904 5.50131 29.0334C5.96296 30.6764 6.61376 32.2192 7.4537 33.6619H40.6347C41.5564 32.1391 42.228 30.5562 42.6496 28.9132C43.0712 27.2701 43.2812 25.567 43.2796 23.8038C43.2796 22.7618 43.189 21.74 43.0079 20.7381C42.8267 19.7363 42.5566 18.7545 42.1976 17.7927C41.9571 17.1115 41.9171 16.4502 42.0774 15.8091C42.2377 15.1679 42.5983 14.6269 43.1594 14.1861C43.6803 13.7853 44.2518 13.6651 44.8737 13.8254C45.4956 13.9857 45.926 14.3464 46.1649 14.9074C46.766 16.31 47.2268 17.743 47.5474 19.2065C47.868 20.67 48.0483 22.1623 48.0884 23.6835C48.1285 25.9677 47.868 28.1518 47.307 30.2356C46.7459 32.3194 45.9244 34.3031 44.8424 36.1865C44.4016 36.9079 43.8005 37.4689 43.0391 37.8696C42.2777 38.2704 41.4763 38.4707 40.6347 38.4707H7.4537C6.61216 38.4707 5.81068 38.2704 5.04928 37.8696C4.28788 37.4689 3.68678 36.9079 3.24597 36.1865C2.20405 34.3832 1.40258 32.4701 0.841547 30.4472C0.280515 28.4243 0 26.2899 0 24.0442C0 20.7181 0.631561 17.6028 1.89468 14.6982C3.15781 11.7937 4.88097 9.249 7.06419 7.06419C9.2474 4.87937 11.8017 3.1562 14.7271 1.89468C17.6525 0.633164 20.7582 0.00160295 24.0442 0Z" fill="black"/>
</svg>
