<svg width="51" height="51" viewBox="0 0 51 51" fill="none" xmlns="http://www.w3.org/2000/svg">
<path d="M42.8864 7.34127C40.5732 5.00549 37.8183 3.15346 34.7821 1.8931C31.746 0.632731 28.4894 -0.0107548 25.202 0.000135963C11.428 0.000135963 0.201819 11.2263 0.201819 25.0004C0.201819 29.4151 1.36227 33.7038 3.53182 37.4879L0 50.4547L13.2443 46.9733C16.9023 48.9663 21.0143 50.0258 25.202 50.0258C38.9761 50.0258 50.2023 38.7997 50.2023 25.0256C50.2023 18.3404 47.6039 12.0588 42.8864 7.34127ZM25.202 45.7876C21.4684 45.7876 17.8105 44.7785 14.6066 42.8865L13.8498 42.4324L5.97886 44.501L8.07273 36.832L7.56818 36.0499C5.49336 32.7377 4.39188 28.9088 4.38955 25.0004C4.38955 13.5472 13.7236 4.21309 25.1768 4.21309C30.7268 4.21309 35.9489 6.38264 39.8591 10.3181C41.7956 12.2451 43.3302 14.5375 44.3738 17.0622C45.4175 19.5869 45.9495 22.2937 45.9389 25.0256C45.9893 36.4788 36.6552 45.7876 25.202 45.7876ZM36.6048 30.2476C35.9741 29.9449 32.8964 28.4313 32.3414 28.2042C31.7611 28.0024 31.3575 27.9015 30.9286 28.507C30.4998 29.1376 29.3141 30.5504 28.9609 30.954C28.6077 31.3829 28.2293 31.4333 27.5986 31.1054C26.968 30.8026 24.9498 30.1215 22.5784 28.0024C20.7116 26.3374 19.4755 24.294 19.097 23.6633C18.7439 23.0326 19.0466 22.7047 19.3745 22.3767C19.652 22.0992 20.0052 21.6451 20.308 21.292C20.6107 20.9388 20.7368 20.6613 20.9386 20.2576C21.1405 19.8288 21.0395 19.4756 20.8882 19.1729C20.7368 18.8701 19.4755 15.7924 18.9709 14.531C18.4664 13.3201 17.9366 13.4715 17.5582 13.4463H16.3473C15.9184 13.4463 15.2625 13.5976 14.6823 14.2283C14.1273 14.859 12.5127 16.3726 12.5127 19.4504C12.5127 22.5281 14.758 25.5049 15.0607 25.9085C15.3634 26.3374 19.4755 32.6442 25.7318 35.3435C27.2202 35.9995 28.3807 36.3779 29.2889 36.6554C30.7773 37.1347 32.1395 37.059 33.2243 36.9076C34.4352 36.731 36.9327 35.394 37.4373 33.9308C37.967 32.4676 37.967 31.2315 37.7905 30.954C37.6139 30.6765 37.2355 30.5504 36.6048 30.2476Z" fill="white"/>
</svg>
