<svg width="295" height="137" viewBox="0 0 295 137" fill="none" xmlns="http://www.w3.org/2000/svg">
<rect x="97.791" y="38.5" width="98" height="98" rx="49" fill="url(#paint0_radial_151_592)"/>
<rect x="97.791" y="38.5" width="98" height="98" rx="49" stroke="#4A3FF7"/>
<path d="M146.791 83.6875C148.813 83.6875 150.753 82.8842 152.183 81.4542C153.613 80.0242 154.416 78.0848 154.416 76.0625C154.416 74.0402 153.613 72.1008 152.183 70.6708C150.753 69.2408 148.813 68.4375 146.791 68.4375C144.769 68.4375 142.829 69.2408 141.399 70.6708C139.969 72.1008 139.166 74.0402 139.166 76.0625C139.166 78.0848 139.969 80.0242 141.399 81.4542C142.829 82.8842 144.769 83.6875 146.791 83.6875ZM134.4 89.4062C135.664 89.4062 136.876 88.9042 137.77 88.0104C138.664 87.1167 139.166 85.9045 139.166 84.6406C139.166 83.3767 138.664 82.1645 137.77 81.2708C136.876 80.3771 135.664 79.875 134.4 79.875C133.136 79.875 131.924 80.3771 131.031 81.2708C130.137 82.1645 129.635 83.3767 129.635 84.6406C129.635 85.9045 130.137 87.1167 131.031 88.0104C131.924 88.9042 133.136 89.4062 134.4 89.4062ZM163.947 84.6406C163.947 85.9045 163.445 87.1167 162.551 88.0104C161.658 88.9042 160.446 89.4062 159.182 89.4062C157.918 89.4062 156.706 88.9042 155.812 88.0104C154.918 87.1167 154.416 85.9045 154.416 84.6406C154.416 83.3767 154.918 82.1645 155.812 81.2708C156.706 80.3771 157.918 79.875 159.182 79.875C160.446 79.875 161.658 80.3771 162.551 81.2708C163.445 82.1645 163.947 83.3767 163.947 84.6406ZM146.791 85.5938C149.319 85.5938 151.743 86.5979 153.531 88.3854C155.318 90.1728 156.322 92.5972 156.322 95.125V106.562H137.26V95.125C137.26 92.5972 138.264 90.1728 140.051 88.3854C141.839 86.5979 144.263 85.5938 146.791 85.5938ZM133.447 95.125C133.447 93.804 133.638 92.5287 133.996 91.3239L133.672 91.3506C132.038 91.53 130.528 92.3062 129.431 93.5304C128.334 94.7547 127.728 96.3407 127.729 97.9844V106.562H133.447V95.125ZM165.854 106.562V97.9844C165.854 96.2847 165.205 94.649 164.04 93.4112C162.876 92.1735 161.282 91.4269 159.586 91.3239C159.942 92.5287 160.135 93.804 160.135 95.125V106.562H165.854Z" fill="white"/>
<path d="M20.4961 31.5436L20.4961 65.5435C20.4961 77.1415 29.8981 86.5436 41.4961 86.5436L98.292 86.5436" stroke="white"/>
<rect x="5.79102" y="0.5" width="31" height="31" rx="6.23684" fill="#6158FA"/>
<rect x="5.79102" y="0.5" width="31" height="31" rx="6.23684" stroke="url(#paint1_linear_151_592)"/>
<path d="M15.496 21.0807C15.7752 21.0807 16.0429 21.1916 16.2403 21.389C16.4377 21.5864 16.5486 21.8542 16.5486 22.1334C16.5486 22.4125 16.4377 22.6803 16.2403 22.8777C16.0429 23.0751 15.7752 23.186 15.496 23.186C15.2168 23.186 14.9491 23.0751 14.7517 22.8777C14.5543 22.6803 14.4434 22.4125 14.4434 22.1334C14.4434 21.8542 14.5543 21.5864 14.7517 21.389C14.9491 21.1916 15.2168 21.0807 15.496 21.0807ZM19.0048 18.9755C19.4701 18.9755 19.9163 19.1603 20.2453 19.4893C20.5743 19.8183 20.7591 20.2646 20.7591 20.7299C20.7591 21.1951 20.5743 21.6414 20.2453 21.9704C19.9163 22.2994 19.4701 22.4842 19.0048 22.4842C18.5395 22.4842 18.0932 22.2994 17.7642 21.9704C17.4352 21.6414 17.2504 21.1951 17.2504 20.7299C17.2504 20.2646 17.4352 19.8183 17.7642 19.4893C18.0932 19.1603 18.5395 18.9755 19.0048 18.9755ZM23.2153 18.2737C22.3802 18.2737 21.6223 17.9228 21.11 17.3263C20.5977 17.9228 19.8399 18.2737 19.0048 18.2737C17.6293 18.2737 16.4855 17.2842 16.2469 15.986C15.7169 15.781 15.2612 15.4208 14.9394 14.9525C14.6176 14.4842 14.4447 13.9296 14.4434 13.3614C14.4434 12.617 14.7391 11.903 15.2655 11.3766C15.7919 10.8502 16.5059 10.5544 17.2504 10.5544L17.7907 10.6035C18.303 10.1404 18.9697 9.85266 19.7065 9.85266C20.5416 9.85266 21.2995 10.2035 21.8118 10.8C22.3241 10.2035 23.082 9.85266 23.917 9.85266C25.2925 9.85266 26.4363 10.8421 26.6749 12.1404C27.2049 12.3453 27.6606 12.7055 27.9824 13.1739C28.3042 13.6422 28.4771 14.1967 28.4784 14.7649C28.4784 15.5094 28.1827 16.2234 27.6563 16.7498C27.1299 17.2762 26.4159 17.572 25.6714 17.572L25.1311 17.5228C24.6188 17.986 23.9521 18.2737 23.2153 18.2737ZM17.2504 11.9579C16.8781 11.9579 16.5212 12.1058 16.2579 12.369C15.9947 12.6322 15.8469 12.9892 15.8469 13.3614C15.8469 13.7337 15.9947 14.0907 16.2579 14.3539C16.5212 14.6171 16.8781 14.7649 17.2504 14.7649C17.482 14.7649 17.6995 14.7088 17.896 14.6106C17.7059 14.8555 17.6022 15.1566 17.6013 15.4667C17.6013 15.8389 17.7491 16.1959 18.0123 16.4591C18.2755 16.7223 18.6325 16.8702 19.0048 16.8702C19.4258 16.8702 19.8048 16.6807 20.0574 16.386L21.089 15.207L22.1627 16.407C22.4293 16.6877 22.8013 16.8702 23.2153 16.8702C23.917 16.8702 24.4995 16.3509 24.6188 15.6772C24.8574 15.979 25.2434 16.1685 25.6714 16.1685C26.0437 16.1685 26.4007 16.0206 26.6639 15.7574C26.9271 15.4942 27.0749 15.1372 27.0749 14.7649C27.0749 14.3927 26.9271 14.0357 26.6639 13.7725C26.4007 13.5093 26.0437 13.3614 25.6714 13.3614C25.4399 13.3614 25.2223 13.4176 25.0258 13.5158C25.2159 13.2708 25.3196 12.9698 25.3206 12.6597C25.3206 12.2874 25.1727 11.9305 24.9095 11.6672C24.6463 11.404 24.2893 11.2562 23.917 11.2562C23.503 11.2562 23.1311 11.4386 22.8644 11.7193L21.7907 12.9193L20.7591 11.7404C20.5065 11.4456 20.1276 11.2562 19.7065 11.2562C19.0048 11.2562 18.4223 11.7755 18.303 12.4492C18.0644 12.1474 17.6784 11.9579 17.2504 11.9579ZM19.0048 20.0281C18.8186 20.0281 18.6402 20.102 18.5085 20.2336C18.3769 20.3652 18.303 20.5437 18.303 20.7299C18.303 20.916 18.3769 21.0945 18.5085 21.2261C18.6402 21.3577 18.8186 21.4316 19.0048 21.4316C19.1909 21.4316 19.3694 21.3577 19.501 21.2261C19.6326 21.0945 19.7065 20.916 19.7065 20.7299C19.7065 20.5437 19.6326 20.3652 19.501 20.2336C19.3694 20.102 19.1909 20.0281 19.0048 20.0281Z" fill="white"/>
<circle cx="97.959" cy="86.5" r="3.5" fill="#D9D9D9"/>
<path d="M273.619 31.5436L273.619 65.5435C273.619 77.1415 264.217 86.5436 252.619 86.5436L195.823 86.5436" stroke="white"/>
<rect x="-0.5" y="0.5" width="31" height="31" rx="6.23684" transform="matrix(-1 0 0 1 287.824 0)" fill="#6158FA"/>
<rect x="-0.5" y="0.5" width="31" height="31" rx="6.23684" transform="matrix(-1 0 0 1 287.824 0)" stroke="url(#paint2_linear_151_592)"/>
<path d="M276.164 10.5544C275.978 10.5544 275.8 10.4805 275.668 10.3488C275.537 10.2172 275.463 10.0388 275.463 9.85263C275.463 9.66652 275.537 9.48802 275.668 9.35642C275.8 9.22481 275.978 9.15088 276.164 9.15088H278.971C279.158 9.15088 279.336 9.22481 279.468 9.35642C279.599 9.48802 279.673 9.66652 279.673 9.85263V12.6597C279.673 12.8458 279.599 13.0243 279.468 13.1559C279.336 13.2875 279.158 13.3614 278.971 13.3614C278.785 13.3614 278.607 13.2875 278.475 13.1559C278.344 13.0243 278.27 12.8458 278.27 12.6597V11.5467L274.204 15.6119C274.073 15.7435 273.894 15.8174 273.708 15.8174C273.522 15.8174 273.344 15.7435 273.212 15.6119L271.252 13.6519L267.538 17.3663C267.405 17.4941 267.228 17.5649 267.044 17.5633C266.86 17.5617 266.684 17.4879 266.554 17.3578C266.424 17.2277 266.35 17.0516 266.348 16.8677C266.347 16.6837 266.418 16.5064 266.545 16.374L270.756 12.1635C270.888 12.032 271.066 11.958 271.252 11.958C271.438 11.958 271.617 12.032 271.748 12.1635L273.708 14.1235L277.277 10.5544H276.164ZM267.743 20.3789V22.4842C267.743 22.6703 267.669 22.8488 267.538 22.9804C267.406 23.112 267.228 23.186 267.042 23.186C266.855 23.186 266.677 23.112 266.545 22.9804C266.414 22.8488 266.34 22.6703 266.34 22.4842V20.3789C266.34 20.1928 266.414 20.0143 266.545 19.8827C266.677 19.7511 266.855 19.6772 267.042 19.6772C267.228 19.6772 267.406 19.7511 267.538 19.8827C267.669 20.0143 267.743 20.1928 267.743 20.3789ZM271.252 17.5719C271.252 17.3858 271.178 17.2073 271.047 17.0757C270.915 16.9441 270.736 16.8702 270.55 16.8702C270.364 16.8702 270.186 16.9441 270.054 17.0757C269.923 17.2073 269.849 17.3858 269.849 17.5719V22.4842C269.849 22.6703 269.923 22.8488 270.054 22.9804C270.186 23.112 270.364 23.186 270.55 23.186C270.736 23.186 270.915 23.112 271.047 22.9804C271.178 22.8488 271.252 22.6703 271.252 22.4842V17.5719ZM274.059 18.2737C274.245 18.2737 274.424 18.3476 274.555 18.4792C274.687 18.6108 274.761 18.7893 274.761 18.9754V22.4842C274.761 22.6703 274.687 22.8488 274.555 22.9804C274.424 23.112 274.245 23.186 274.059 23.186C273.873 23.186 273.695 23.112 273.563 22.9804C273.431 22.8488 273.357 22.6703 273.357 22.4842V18.9754C273.357 18.7893 273.431 18.6108 273.563 18.4792C273.695 18.3476 273.873 18.2737 274.059 18.2737ZM278.27 15.4667C278.27 15.2806 278.196 15.1021 278.064 14.9705C277.933 14.8388 277.754 14.7649 277.568 14.7649C277.382 14.7649 277.203 14.8388 277.072 14.9705C276.94 15.1021 276.866 15.2806 276.866 15.4667V22.4842C276.866 22.6703 276.94 22.8488 277.072 22.9804C277.203 23.112 277.382 23.186 277.568 23.186C277.754 23.186 277.933 23.112 278.064 22.9804C278.196 22.8488 278.27 22.6703 278.27 22.4842V15.4667Z" fill="white"/>
<circle cx="3.5" cy="3.5" r="3.5" transform="matrix(-1 0 0 1 199.656 83)" fill="#D9D9D9"/>
<defs>
<radialGradient id="paint0_radial_151_592" cx="0" cy="0" r="1" gradientUnits="userSpaceOnUse" gradientTransform="translate(146.791 87.5) rotate(90) scale(49.5)">
<stop offset="0.644231" stop-color="white" stop-opacity="0.57"/>
<stop offset="1" stop-color="#352CC2"/>
</radialGradient>
<linearGradient id="paint1_linear_151_592" x1="21.291" y1="0" x2="21.291" y2="32" gradientUnits="userSpaceOnUse">
<stop stop-color="#352CC2"/>
<stop offset="1" stop-color="#96B3FF"/>
</linearGradient>
<linearGradient id="paint2_linear_151_592" x1="16" y1="0" x2="16" y2="32" gradientUnits="userSpaceOnUse">
<stop stop-color="#352CC2"/>
<stop offset="1" stop-color="#96B3FF"/>
</linearGradient>
</defs>
</svg>
